{"title":"The Intent 2016 Movies HDRip XviD AAC New Source +Sample ☻rDX☻","uid":15484262,"size":740060037,"categoryP":"video","categoryS":"movies","magnet":"?xt=urn:btih:fd82907ddc7cf794930448d32d994d71d4e0026b&amp;dn=The+Intent+2016+Movies+HDRip+XviD+AAC+New+Source+%2BSample+%E2%98%BBrDX%E2%98%BB&amp;tr=udp%3A%2F%2Ftracker.leechers-paradise.org%3A6969&amp;tr=udp%3A%2F%2Fzer0day.ch%3A1337&amp;tr=udp%3A%2F%2Fopen.demonii.com%3A1337&amp;tr=udp%3A%2F%2Ftracker.coppersurfer.tk%3A6969&amp;tr=udp%3A%2F%2Fexodus.desync.com%3A6969","seeders":1,"leechers":3,"uploader":"basicssom","files":2,"time":1470300153,"description":"----------------------------------------------------------------\r\nThe Intent 2016 English Movies HDRip XviD AAC New Source with Sample ☻rDX☻\r\n\r\nSCREEN SHOTS &amp; POSTER:\r\n  \nhttp://postimage.co.nr/2016/8/buy/index.htm  \nhttp://postimage.co.nr/2016/8/buy/1.html  \nhttp://postimage.co.nr/2016/8/buy/2.html  \nhttp://postimage.co.nr/2016/8/buy/3.html  \nhttp://postimage.co.nr/2016/8/buy/4.html  \nhttp://postimage.co.nr/2016/8/buy/5.html  \nhttp://postimage.co.nr/2016/8/buy/6.html  \nhttp://postimage.co.nr/2016/8/buy/7.html  \nhttp://postimage.co.nr/2016/8/buy/8.html  \nhttp://postimage.co.nr/2016/8/buy/9.html  \nhttp://postimage.co.nr/2016/8/buy/10.html\r\n\r\nFormat                                   : Matroska\r\nFormat version                           : Version 4 / Version 2\r\nFile size                                : 693 MiB\r\nDuration                                 : 1 h 39 min\r\nOverall bit rate                         : 975 kb/s\r\nMovie name                               : The Intent 2016 English Movies HDRip XviD AAC New Source ☻rDX☻\r\n\r\nVideo\r\nID                                       : 1\r\nFormat                                   : MPEG-4 Visual\r\nFormat profile                           : Advanced   \r\nFormat settings, BVOP                    : 2\r\nFormat settings, QPel                    : No\r\nFormat settings, GMC                     : No warppoints\r\nFormat settings, Matrix                  : Default (H.263)\r\nMuxing mode                              : Packed bitstream\r\nCodec ID                                 : V_MS/VFW/FOURCC / XVID\r\nCodec ID/Hint                            : XviD\r\nDuration                                 : 1 h 39 min\r\nBit rate                                 : 828 kb/s\r\nWidth                                    : 640 pixels\r\nHeight                                   : 280 pixels\r\nDisplay aspect ratio                     : 2.25:1\r\nFrame rate mode                          : Constant\r\nFrame rate                               : 25.000 FPS\r\nColor space                              : YUV\r\nChroma subsampling                       : 4:2:0\r\nBit depth                                : 8 bits\r\nScan type                                : Progressive\r\nCompression mode                         : Lossy\r\nBits/(Pixel*Frame)                       : 0.185\r\nStream size                              : 588 MiB (85%)\r\nTitle                                    : ☻rDX☻\r\nWriting library                          : XviD 64\r\nDefault                                  : Yes\r\nForced                                   : No\r\n\r\nAudio\r\nID                                       : 2\r\nFormat                                   : MPEG Audio\r\nFormat version                           : Version 1\r\nFormat profile                           : Layer 3\r\nMode                                     : Joint stereo\r\nMode extension                           : MS Stereo\r\nCodec ID                                 : A_MPEG/L3\r\nCodec ID/Hint                            : MP3\r\nDuration                                 : 1 h 39 min\r\nBit rate mode                            : Constant\r\nBit rate                                 : 128 kb/s\r\nChannel(s)                               : 2 channels\r\nSampling rate                            : 48.0 kHz\r\nCompression mode                         : Lossy\r\nStream size                              : 91.0 MiB (13%)\r\nTitle                                    : ☻rDX☻\r\nWriting library                          : LAME3.99r\r\nEncoding settings                        : -m j -V 4 -q 3 -lowpass 17 -b 128\r\nDefault                                  : Yes\r\nForced                                   : No\r\n\r\nIMDB \nhttp://gb.imdb.com/title/tt3842614/","torrent":{"xt":"urn:btih:fd82907ddc7cf794930448d32d994d71d4e0026b","amp;dn":"The+Intent+2016+Movies+HDRip+XviD+AAC+New+Source+%2BSample+%E2%98%BBrDX%E2%98%BB","amp;tr":["udp%3A%2F%2Ftracker.leechers-paradise.org%3A6969","udp%3A%2F%2Fzer0day.ch%3A1337","udp%3A%2F%2Fopen.demonii.com%3A1337","udp%3A%2F%2Ftracker.coppersurfer.tk%3A6969","udp%3A%2F%2Fexodus.desync.com%3A6969"],"infoHash":"fd82907ddc7cf794930448d32d994d71d4e0026b","infoHashBuffer":{"type":"Buffer","data":[253,130,144,125,220,124,247,148,147,4,72,211,45,153,77,113,212,224,2,107]},"announce":[],"urlList":[]}}